<svg width="501" height="439" viewBox="0 0 501 439" fill="none" xmlns="http://www.w3.org/2000/svg">
<path d="M110.673 40.5669C197.968 116.384 257.263 157.389 346.338 224.008C347.54 224.907 349.29 224.226 349.532 222.744L356.974 177.16C356.991 177.054 357 176.946 357 176.838V131.23C357 131.077 356.982 130.925 356.948 130.776L346.542 86.1795C346.514 86.0601 346.475 85.9435 346.426 85.8312L327 41.5L304.511 3.60222C303.424 1.76982 305.574 -0.265922 307.344 0.919965L351.365 30.4095C351.455 30.4697 351.54 30.5372 351.619 30.6111L398.358 74.3668C398.452 74.4554 398.538 74.553 398.614 74.6582L434.41 124.375C434.47 124.458 434.523 124.546 434.57 124.637L450 155L464.907 196.739C464.969 196.912 465.006 197.093 465.019 197.276L468.488 248.32C468.496 248.44 468.493 248.56 468.48 248.68L465 279.5L458.742 304.051C458.589 304.65 458.722 305.285 459.101 305.773L472.411 322.885C472.47 322.962 472.524 323.042 472.572 323.126L491.377 356.283C491.459 356.427 491.522 356.581 491.566 356.74L498.451 381.823C498.484 381.941 498.505 382.061 498.516 382.183L500.479 405.257C500.493 405.418 500.487 405.581 500.462 405.741L497.067 427.079C497.023 427.357 496.921 427.622 496.767 427.857L490.896 436.86C490.186 437.948 488.644 438.081 487.758 437.131L462.207 409.722C462.07 409.575 461.911 409.449 461.736 409.349L444.77 399.654C444.591 399.552 444.398 399.478 444.196 399.435L430.707 396.544C430.569 396.515 430.429 396.5 430.288 396.5H411.336C411.114 396.5 410.893 396.537 410.682 396.61L398 401L385.5 407L360.5 419.5L330.754 432.39C330.586 432.463 330.408 432.512 330.225 432.537L297 437H263L222.674 434.013C222.558 434.004 222.443 433.986 222.331 433.957L185 424.5L137.157 406.559C137.053 406.52 136.951 406.472 136.855 406.416L90.6401 379.581C90.5468 379.527 90.4581 379.466 90.3749 379.397L62.5 356.5L38.5 333.5L15.5 307L5.12099 291.679C5.04056 291.56 4.97314 291.433 4.91988 291.3L1.00057 281.501C0.311848 279.78 2.13428 278.129 3.77978 278.984L62.5 309.5L102.357 324.446C102.452 324.482 102.55 324.51 102.65 324.531L145.347 333.468C145.449 333.489 145.552 333.503 145.656 333.508L184.845 335.492C184.948 335.497 185.052 335.495 185.154 335.484L227.766 331.024C227.922 331.008 228.074 330.974 228.222 330.922L270.099 316.196C271.58 315.675 271.911 313.729 270.685 312.748L258.5 303L242.5 290.5L208.5 258.5L155.5 203L92 129.5L63.5 93.5L51.7122 79.2565C51.5717 79.0867 51.4602 78.8948 51.3823 78.6886L46.7385 66.4063C46.0314 64.5362 48.2031 62.9004 49.8054 64.0962L148 137.373L208.162 184C210.057 185.469 212.461 182.967 210.918 181.132L167.5 129.5L133.5 84.5L117 60L107.589 43.061C106.5 41.1 108.98 39.096 110.673 40.5669Z" fill="#95BF2D" stroke="#95BF2D"/>
</svg>
